<?xml version="1.0" encoding="UTF-8"?>
<svg version="1.1" viewBox="0 0 2048 430" width="500" height="105" xmlns="http://www.w3.org/2000/svg">
<path transform="translate(1186,7)" d="m0 0 21 2 16 5 15 8 1 5-20 41-4 1-9-3h-15l-6 4-3 4-2 6-1 7-1 53h107l13 23 16 30 13 23 9 17v2h2l2-6 12-26 14-30 11-24 4-8 1-1h74l-2 5-24 47-14 27-12 22-11 22-10 19-14 27-10 19-14 27-10 19-15 29-10 18-1 1h-75l6-11 11-22 10-19 12-23 14-27 10-19-1-7-15-27-14-25-13-23-15-27-14-25-3-6-1 28h-43v138h-65l-1-137-26-1v-49h26l1-50 3-22 6-18 6-11 10-13 9-8 14-7 12-3z" fill="#5844FA"/>
<path transform="translate(532,134)" d="m0 0h14l19 3 13 5 11 6 10 8h1v-16h65v187h-64v-19l-5 3-8 7-16 9-13 4-12 2h-17l-18-3-15-6-10-6-11-9-10-11-9-14-6-14-4-15-2-17 1-19 3-15 4-12 9-17 8-10 7-8 13-10 14-7 13-4zm16 56-11 4-8 6-7 7-5 10-2 6-1 14 2 11 4 9 4 6 9 8 8 4 7 2h20l11-4 9-6 7-8 4-8 3-14-1-14-5-13-7-9-10-7-11-4z" fill="#5844FA"/>
<path transform="translate(1705,134)" d="m0 0h15l19 3 13 5 12 7 10 8v-17h64l1 1v29l-1 157h-63l-1-4 1-16-14 11-10 6-11 5-20 4h-17l-17-3-13-5-11-6-10-8-11-11-10-15-7-16-4-16-1-7v-24l3-17 6-16 7-13 10-13 9-9 13-9 13-6 16-4zm17 56-10 3-11 8-6 7-5 10-2 9v15l4 13 8 11 10 7 11 4h21l13-5 10-9 4-5 4-8 2-9v-15l-4-13-7-10-8-7-11-5-4-1z" fill="#5844FA"/>
<path transform="translate(792,7)" d="m0 0 21 2 17 5 13 7 3 2-1 6-20 40-6-1-6-2h-16l-6 4-4 9-1 6-1 55h43v49h-43v137l-1 1h-64l-1-21v-117l-10 1h-12l-4-1v-49h26v-23l1-30 3-19 5-16 8-15 8-10 10-9 16-8 10-2z" fill="#5946FA"/>
<path transform="translate(858,70)" d="m0 0h65v70h39v49h-39l1 68 2 9 4 6 6 2 9-1 5-3h4l8 24 7 23v5l-11 5-15 4-14 2h-16l-15-3-16-8-10-10-8-15-4-13-2-15v-80h-27v-49l26-1z" fill="#5844FA"/>
<path transform="translate(181,134)" d="m0 0h16l21 3 16 5 14 7 2 2-1 6-19 38-2 1-10-5-7-2-8-1h-9l-10 2-10 5-10 9-6 9-4 13v15l4 13 6 9 4 5 11 7 8 3 7 1h10l17-4 8-4 20 40 1 6-6 4-16 6-16 4-15 2h-18l-18-3-15-5-13-7-11-8-12-11-10-12-8-14-5-14-3-14v-21l3-15 5-14 8-14 8-10 6-7 11-9 10-7 14-7 17-5z" fill="#5844FA"/>
<path transform="translate(395,134)" d="m0 0h9l18 3 15 6 3 2-1 5-11 23-11 22-2 5-5-1-10-5-8-2h-22l-10 4-9 8-7 15-1 4-1 103-1 1h-64v-187h64l1 1v13l-1 12 16-16 10-7 10-5 11-3z" fill="#5945FA"/>
<path transform="translate(1882,140)" d="m0 0h65v187h-65z" fill="#5945FA"/>
<path transform="translate(992,140)" d="m0 0h64v187h-64l-1-3v-180z" fill="#5A46FA"/>
<path transform="translate(1472,193)" d="m0 0 116 1 1 1v53l-1 1h-117v-55z" fill="#5844FA"/>
<path transform="translate(1909,24)" d="m0 0h13l10 3 9 6 7 8 5 10 1 4v14l-4 11-6 8-8 7-9 4-8 2-13-1-9-4-8-6-7-9-4-9-1-4v-11l3-10 6-10 8-7 10-5z" fill="#5844FA"/>
<path transform="translate(1018,24)" d="m0 0h13l10 3 9 6 8 9 5 12v16l-4 10-4 6-8 8-10 5-9 2-13-1-9-4-8-6-7-9-4-10-1-9 2-12 5-10 9-9 9-5z" fill="#5844FA"/>
</svg>
